<svg width="1920" height="311" viewBox="0 0 1920 311" fill="none" xmlns="http://www.w3.org/2000/svg">
<rect width="1920" height="310" fill="#F7FBFF"/>
<path fill-rule="evenodd" clip-rule="evenodd" d="M1408.5 0H1448.29C1451.54 23.5306 1462.47 44.6062 1478.47 60.6097C1497.74 79.8814 1524.37 91.8011 1553.78 91.8011C1583.19 91.8011 1609.82 79.8814 1629.09 60.6097C1645.09 44.6062 1656.02 23.5306 1659.27 0H1699.06C1695.61 34.4505 1680.2 65.373 1657.02 88.5458C1630.6 114.969 1594.1 131.313 1553.78 131.313C1513.46 131.313 1476.96 114.97 1450.54 88.5458C1427.36 65.3742 1411.94 34.4505 1408.5 0" fill="#FFC14F"/>
<path d="M1388.07 32.0537C1392.78 32.0537 1397.05 33.9644 1400.14 37.0537C1403.23 40.143 1405.14 44.4096 1405.14 49.1226C1405.14 53.8357 1403.23 58.1023 1400.14 61.1916C1397.05 64.2808 1392.78 66.1916 1388.07 66.1916C1383.36 66.1916 1379.09 64.2808 1376 61.1916C1372.91 58.1023 1371 53.8357 1371 49.1226C1371 44.4096 1372.91 40.1417 1376 37.0537C1379.09 33.9644 1383.36 32.0537 1388.07 32.0537Z" fill="#007AFF"/>
<path d="M1639.45 0C1636.68 18.8162 1627.86 35.6625 1615.02 48.4983C1599.35 64.1712 1577.7 73.865 1553.78 73.865C1529.86 73.865 1508.21 64.1712 1492.54 48.4983C1479.7 35.6625 1470.88 18.8162 1468.11 0H1469.64C1472.4 18.3955 1481.05 34.8648 1493.61 47.424C1509.01 62.8215 1530.28 72.3454 1553.78 72.3454C1577.28 72.3454 1598.55 62.8215 1613.95 47.424C1626.5 34.8648 1635.16 18.3955 1637.92 0H1639.45Z" fill="#D0DCE0"/>
<path fill-rule="evenodd" clip-rule="evenodd" d="M250.001 310.312H289.788C293.035 286.782 303.968 265.706 319.971 249.702C339.243 230.431 365.868 218.511 395.279 218.511C424.689 218.511 451.314 230.431 470.586 249.702C486.59 265.706 497.522 286.782 500.77 310.312H540.556C537.112 275.862 521.694 244.939 498.522 221.766C472.099 195.343 435.596 179 395.279 179C354.961 179 318.46 195.343 292.035 221.766C268.864 244.938 253.444 275.862 250 310.312" fill="#007AFF"/>
<path fill-rule="evenodd" clip-rule="evenodd" d="M0 236V215.433C15.309 215.433 29.1668 209.229 39.1979 199.198C49.2289 189.167 55.4331 175.307 55.4331 160C55.4331 144.693 49.2289 130.833 39.1979 120.802C29.1668 110.771 15.3073 104.567 0 104.567V84C20.9851 84 39.9859 92.5066 53.7388 106.261C67.4934 120.014 76 139.015 76 160C76 180.985 67.4934 199.986 53.7388 213.739C39.9859 227.493 20.9851 236 0 236Z" fill="#FFC14F"/>
<path d="M140 104C146.352 104 152.101 106.574 156.263 110.737C160.426 114.898 163 120.648 163 127C163 133.352 160.426 139.101 156.263 143.263C152.102 147.426 146.352 150 140 150C133.648 150 127.899 147.426 123.737 143.263C119.574 139.101 117 133.352 117 127C117 120.648 119.574 114.899 123.737 110.737C127.898 106.574 133.648 104 140 104Z" fill="#D0DCE0"/>
<path d="M572.693 232.199C580.003 232.199 586.621 235.162 591.413 239.954C596.204 244.746 599.168 251.363 599.168 258.674C599.168 265.985 596.204 272.602 591.413 277.393C586.621 282.185 580.004 285.148 572.693 285.148C565.382 285.148 558.765 282.185 553.973 277.393C549.182 272.602 546.219 265.985 546.219 258.674C546.219 251.363 549.182 244.746 553.973 239.954C558.764 235.162 565.382 232.199 572.693 232.199Z" fill="#FFC14F"/>
<path d="M395.28 235.444C419.196 235.444 440.848 245.138 456.521 260.811C469.584 273.874 478.493 291.093 481.097 310.313H479.563C476.97 291.512 468.234 274.672 455.446 261.885C440.049 246.488 418.777 236.964 395.28 236.964C371.783 236.964 350.512 246.488 335.116 261.885C322.328 274.674 313.592 291.513 310.999 310.313H309.465C312.069 291.093 320.978 273.874 334.041 260.811C349.714 245.138 371.366 235.444 395.282 235.444" fill="#D0DCE0"/>
<path fill-rule="evenodd" clip-rule="evenodd" d="M1920 238V220.275C1906.71 220.275 1894.67 214.928 1885.96 206.282C1877.25 197.637 1871.86 185.692 1871.86 172.5C1871.86 159.308 1877.25 147.363 1885.96 138.718C1894.67 130.072 1906.71 124.725 1920 124.725V107C1901.77 107 1885.28 114.331 1873.33 126.186C1861.39 138.038 1854 154.414 1854 172.5C1854 190.586 1861.39 206.962 1873.33 218.814C1885.28 230.669 1901.78 238 1920 238Z" fill="#007AFF"/>
<path d="M1791.5 167C1799.92 167 1807.55 170.358 1813.07 175.787C1818.59 181.216 1822 188.716 1822 197C1822 205.284 1818.59 212.784 1813.07 218.213C1807.55 223.642 1799.92 227 1791.5 227C1783.08 227 1775.45 223.642 1769.93 218.213C1764.41 212.784 1761 205.284 1761 197C1761 188.716 1764.41 181.216 1769.93 175.787C1775.45 170.358 1783.08 167 1791.5 167Z" fill="#D0DCE0"/>
</svg>